<?xml version="1.0" encoding="UTF-8" standalone="no"?>
<!DOCTYPE svg PUBLIC "-//W3C//DTD SVG 1.1//EN"
 "http://www.w3.org/Graphics/SVG/1.1/DTD/svg11.dtd">
<!-- Generated by graphviz version 14.1.3 (0)
 -->
<!-- Pages: 1 -->
<svg width="581pt" height="98pt"
 viewBox="0.00 0.00 581.00 98.00" xmlns="http://www.w3.org/2000/svg" xmlns:xlink="http://www.w3.org/1999/xlink">
<g id="graph0" class="graph" transform="scale(1 1) rotate(0) translate(4 94)">
<polygon fill="white" stroke="none" points="-4,4 -4,-94 577.32,-94 577.32,4 -4,4"/>
<!-- sev -->
<g id="node1" class="node">
<title>sev</title>
<ellipse fill="lightyellow" stroke="black" cx="69.1" cy="-72" rx="69.1" ry="18"/>
<text xml:space="preserve" text-anchor="middle" x="69.1" y="-67.33" font-family="Times New Roman,serif" font-size="14.00">중증도 (sev)</text>
</g>
<!-- T -->
<g id="node3" class="node">
<title>T</title>
<ellipse fill="none" stroke="black" cx="225.35" cy="-26" rx="50.16" ry="18"/>
<text xml:space="preserve" text-anchor="middle" x="225.35" y="-21.32" font-family="Times New Roman,serif" font-size="14.00">처치 (T)</text>
</g>
<!-- sev&#45;&gt;T -->
<g id="edge1" class="edge">
<title>sev&#45;&gt;T</title>
<path fill="none" stroke="black" d="M115.96,-58.32C134.59,-52.77 156.16,-46.34 175.12,-40.68"/>
<polygon fill="black" stroke="black" points="175.91,-44.1 184.49,-37.89 173.91,-37.39 175.91,-44.1"/>
</g>
<!-- Y -->
<g id="node4" class="node">
<title>Y</title>
<ellipse fill="none" stroke="black" cx="497.91" cy="-49" rx="75.41" ry="18"/>
<text xml:space="preserve" text-anchor="middle" x="497.91" y="-44.33" font-family="Times New Roman,serif" font-size="14.00">입원일수 (Y)</text>
</g>
<!-- sev&#45;&gt;Y -->
<g id="edge2" class="edge">
<title>sev&#45;&gt;Y</title>
<path fill="none" stroke="black" d="M138.37,-70.25C205.99,-68.25 312.48,-64.4 404.5,-58 408.56,-57.72 412.72,-57.4 416.91,-57.07"/>
<polygon fill="black" stroke="black" points="416.89,-60.58 426.56,-56.25 416.3,-53.61 416.89,-60.58"/>
</g>
<!-- hosp -->
<g id="node2" class="node">
<title>hosp</title>
<ellipse fill="none" stroke="black" cx="69.1" cy="-18" rx="62.26" ry="18"/>
<text xml:space="preserve" text-anchor="middle" x="69.1" y="-13.32" font-family="Times New Roman,serif" font-size="14.00">병원 (hosp)</text>
</g>
<!-- hosp&#45;&gt;T -->
<g id="edge3" class="edge">
<title>hosp&#45;&gt;T</title>
<path fill="none" stroke="black" d="M130.62,-21.14C141.64,-21.71 153.14,-22.31 164.16,-22.88"/>
<polygon fill="black" stroke="black" points="163.74,-26.36 173.91,-23.38 164.11,-19.37 163.74,-26.36"/>
</g>
<!-- T&#45;&gt;Y -->
<g id="edge4" class="edge">
<title>T&#45;&gt;Y</title>
<path fill="none" stroke="black" stroke-dasharray="5,2" d="M274.75,-29.92C310.58,-32.85 360.59,-36.97 404.5,-40.75 408.11,-41.06 411.8,-41.38 415.53,-41.71"/>
<polygon fill="black" stroke="black" points="415.01,-45.17 425.28,-42.56 415.62,-38.2 415.01,-45.17"/>
<text xml:space="preserve" text-anchor="middle" x="349" y="-44.7" font-family="Times New Roman,serif" font-size="14.00">알고 싶은 효과</text>
</g>
</g>
</svg>