<?xml version="1.0" encoding="UTF-8" standalone="no"?>
<!DOCTYPE svg PUBLIC "-//W3C//DTD SVG 1.1//EN"
 "http://www.w3.org/Graphics/SVG/1.1/DTD/svg11.dtd">
<!-- Generated by graphviz version 14.1.3 (0)
 -->
<!-- Pages: 1 -->
<svg width="506pt" height="100pt"
 viewBox="0.00 0.00 506.00 100.00" xmlns="http://www.w3.org/2000/svg" xmlns:xlink="http://www.w3.org/1999/xlink">
<g id="graph0" class="graph" transform="scale(1 1) rotate(0) translate(4 96)">
<polygon fill="white" stroke="none" points="-4,4 -4,-96 501.5,-96 501.5,4 -4,4"/>
<!-- Z -->
<g id="node1" class="node">
<title>Z</title>
<path fill="#e0e7ff" stroke="#4338ca" d="M118.75,-92C118.75,-92 68.25,-92 68.25,-92 62.25,-92 56.25,-86 56.25,-80 56.25,-80 56.25,-68 56.25,-68 56.25,-62 62.25,-56 68.25,-56 68.25,-56 118.75,-56 118.75,-56 124.75,-56 130.75,-62 130.75,-68 130.75,-68 130.75,-80 130.75,-80 130.75,-86 124.75,-92 118.75,-92"/>
<text xml:space="preserve" text-anchor="middle" x="93.5" y="-69.33" font-family="Helvetica,sans-Serif" font-size="14.00">Z = 배정</text>
</g>
<!-- T -->
<g id="node2" class="node">
<title>T</title>
<path fill="#dcfce7" stroke="#15803d" d="M373.25,-80C373.25,-80 284.5,-80 284.5,-80 278.5,-80 272.5,-74 272.5,-68 272.5,-68 272.5,-56 272.5,-56 272.5,-50 278.5,-44 284.5,-44 284.5,-44 373.25,-44 373.25,-44 379.25,-44 385.25,-50 385.25,-56 385.25,-56 385.25,-68 385.25,-68 385.25,-74 379.25,-80 373.25,-80"/>
<text xml:space="preserve" text-anchor="middle" x="328.88" y="-57.33" font-family="Helvetica,sans-Serif" font-size="14.00">T = 실제 처치</text>
</g>
<!-- Z&#45;&gt;T -->
<g id="edge1" class="edge">
<title>Z&#45;&gt;T</title>
<path fill="none" stroke="black" d="M131.22,-72.11C165.91,-70.33 218.76,-67.61 260.94,-65.44"/>
<polygon fill="black" stroke="black" points="260.93,-68.95 270.74,-64.94 260.57,-61.96 260.93,-68.95"/>
<text xml:space="preserve" text-anchor="middle" x="229.75" y="-71.2" font-family="Times New Roman,serif" font-size="14.00">1st Stage</text>
</g>
<!-- Y -->
<g id="node3" class="node">
<title>Y</title>
<path fill="#fef9c3" stroke="#a16207" d="M485.5,-46C485.5,-46 434.25,-46 434.25,-46 428.25,-46 422.25,-40 422.25,-34 422.25,-34 422.25,-22 422.25,-22 422.25,-16 428.25,-10 434.25,-10 434.25,-10 485.5,-10 485.5,-10 491.5,-10 497.5,-16 497.5,-22 497.5,-22 497.5,-34 497.5,-34 497.5,-40 491.5,-46 485.5,-46"/>
<text xml:space="preserve" text-anchor="middle" x="459.88" y="-23.32" font-family="Helvetica,sans-Serif" font-size="14.00">Y = 결과</text>
</g>
<!-- T&#45;&gt;Y -->
<g id="edge2" class="edge">
<title>T&#45;&gt;Y</title>
<path fill="none" stroke="black" d="M385.71,-47.28C394.13,-45.06 402.76,-42.79 411,-40.62"/>
<polygon fill="black" stroke="black" points="411.7,-44.05 420.47,-38.12 409.91,-37.29 411.7,-44.05"/>
</g>
<!-- U -->
<g id="node4" class="node">
<title>U</title>
<path fill="#fee2e2" stroke="#b91c1c" stroke-dasharray="5,2" d="M175,-36C175,-36 12,-36 12,-36 6,-36 0,-30 0,-24 0,-24 0,-12 0,-12 0,-6 6,0 12,0 12,0 175,0 175,0 181,0 187,-6 187,-12 187,-12 187,-24 187,-24 187,-30 181,-36 175,-36"/>
<text xml:space="preserve" text-anchor="middle" x="93.5" y="-13.32" font-family="Helvetica,sans-Serif" font-size="14.00">U = 관찰 불가 교란변수</text>
</g>
<!-- U&#45;&gt;T -->
<g id="edge3" class="edge">
<title>U&#45;&gt;T</title>
<path fill="none" stroke="#b91c1c" stroke-dasharray="5,2" d="M187.41,-35.52C212.09,-40.17 238.26,-45.1 261.24,-49.44"/>
<polygon fill="#b91c1c" stroke="#b91c1c" points="260.28,-52.82 270.75,-51.23 261.58,-45.94 260.28,-52.82"/>
</g>
<!-- U&#45;&gt;Y -->
<g id="edge4" class="edge">
<title>U&#45;&gt;Y</title>
<path fill="none" stroke="#b91c1c" stroke-dasharray="5,2" d="M187.39,-20.55C258.45,-22.5 353.59,-25.11 410.32,-26.67"/>
<polygon fill="#b91c1c" stroke="#b91c1c" points="410.22,-30.17 420.31,-26.94 410.41,-23.17 410.22,-30.17"/>
</g>
</g>
</svg>