<?xml version="1.0" encoding="UTF-8" standalone="no"?>
<!DOCTYPE svg PUBLIC "-//W3C//DTD SVG 1.1//EN"
 "http://www.w3.org/Graphics/SVG/1.1/DTD/svg11.dtd">
<!-- Generated by graphviz version 14.1.3 (0)
 -->
<!-- Pages: 1 -->
<svg width="592pt" height="90pt"
 viewBox="0.00 0.00 592.00 90.00" xmlns="http://www.w3.org/2000/svg" xmlns:xlink="http://www.w3.org/1999/xlink">
<g id="graph0" class="graph" transform="scale(1 1) rotate(0) translate(4 85.52)">
<polygon fill="white" stroke="none" points="-4,4 -4,-85.52 588.45,-85.52 588.45,4 -4,4"/>
<!-- ab -->
<g id="node1" class="node">
<title>ab</title>
<ellipse fill="#ffcccc" stroke="black" cx="69.12" cy="-29.52" rx="69.12" ry="29.52"/>
<text xml:space="preserve" text-anchor="middle" x="69.12" y="-33.1" font-family="Times New Roman,serif" font-size="14.00">ability</text>
<text xml:space="preserve" text-anchor="middle" x="69.12" y="-16.6" font-family="Times New Roman,serif" font-size="14.00">(관찰 불가)</text>
</g>
<!-- ed -->
<g id="node2" class="node">
<title>ed</title>
<ellipse fill="none" stroke="black" cx="234.87" cy="-63.52" rx="59.63" ry="18"/>
<text xml:space="preserve" text-anchor="middle" x="234.87" y="-58.85" font-family="Times New Roman,serif" font-size="14.00">교육(educ)</text>
</g>
<!-- ab&#45;&gt;ed -->
<g id="edge1" class="edge">
<title>ab&#45;&gt;ed</title>
<path fill="none" stroke="black" d="M132.02,-42.38C145.68,-45.21 160.13,-48.21 173.71,-51.03"/>
<polygon fill="black" stroke="black" points="172.9,-54.44 183.4,-53.04 174.32,-47.58 172.9,-54.44"/>
</g>
<!-- wg -->
<g id="node3" class="node">
<title>wg</title>
<ellipse fill="none" stroke="black" cx="522.72" cy="-33.52" rx="61.73" ry="18"/>
<text xml:space="preserve" text-anchor="middle" x="522.72" y="-28.85" font-family="Times New Roman,serif" font-size="14.00">임금(wage)</text>
</g>
<!-- ab&#45;&gt;wg -->
<g id="edge2" class="edge">
<title>ab&#45;&gt;wg</title>
<path fill="none" stroke="black" d="M138.71,-30.13C222.57,-30.87 363.87,-32.12 449.4,-32.88"/>
<polygon fill="black" stroke="black" points="449.28,-36.38 459.32,-32.97 449.35,-29.38 449.28,-36.38"/>
</g>
<!-- ed&#45;&gt;wg -->
<g id="edge3" class="edge">
<title>ed&#45;&gt;wg</title>
<path fill="none" stroke="black" stroke-dasharray="5,2" d="M291.66,-57.67C337.79,-52.83 403.49,-45.93 452.88,-40.75"/>
<polygon fill="black" stroke="black" points="453.02,-44.25 462.6,-39.73 452.29,-37.29 453.02,-44.25"/>
<text xml:space="preserve" text-anchor="middle" x="377.74" y="-59.43" font-family="Times New Roman,serif" font-size="14.00">κ (알고 싶은 효과)</text>
</g>
</g>
</svg>