<?xml version="1.0" encoding="UTF-8" standalone="no"?>
<!DOCTYPE svg PUBLIC "-//W3C//DTD SVG 1.1//EN"
 "http://www.w3.org/Graphics/SVG/1.1/DTD/svg11.dtd">
<!-- Generated by graphviz version 14.1.3 (0)
 -->
<!-- Pages: 1 -->
<svg width="694pt" height="99pt"
 viewBox="0.00 0.00 694.00 99.00" xmlns="http://www.w3.org/2000/svg" xmlns:xlink="http://www.w3.org/1999/xlink">
<g id="graph0" class="graph" transform="scale(1 1) rotate(0) translate(4 95.14)">
<polygon fill="white" stroke="none" points="-4,4 -4,-95.14 690.16,-95.14 690.16,4 -4,4"/>
<!-- T -->
<g id="node1" class="node">
<title>T</title>
<ellipse fill="none" stroke="black" cx="62.26" cy="-27.14" rx="62.26" ry="18"/>
<text xml:space="preserve" text-anchor="middle" x="62.26" y="-22.46" font-family="Times New Roman,serif" font-size="14.00">이메일 (T)</text>
</g>
<!-- op -->
<g id="node2" class="node">
<title>op</title>
<ellipse fill="#ffcccc" stroke="black" cx="216.96" cy="-73.14" rx="55.45" ry="18"/>
<text xml:space="preserve" text-anchor="middle" x="216.96" y="-68.09" font-family="Times New Roman,serif" font-size="14.00">opened (op)</text>
</g>
<!-- T&#45;&gt;op -->
<g id="edge1" class="edge">
<title>T&#45;&gt;op</title>
<path fill="none" stroke="black" d="M106.61,-40.2C124.66,-45.64 145.77,-51.99 164.6,-57.67"/>
<polygon fill="black" stroke="black" points="163.35,-60.94 173.94,-60.48 165.37,-54.24 163.35,-60.94"/>
</g>
<!-- ag -->
<g id="node3" class="node">
<title>ag</title>
<ellipse fill="#ffcccc" stroke="black" cx="431.12" cy="-34.14" rx="67.22" ry="18"/>
<text xml:space="preserve" text-anchor="middle" x="431.12" y="-29.09" font-family="Times New Roman,serif" font-size="14.00">agreement (ag)</text>
</g>
<!-- T&#45;&gt;ag -->
<g id="edge2" class="edge">
<title>T&#45;&gt;ag</title>
<path fill="none" stroke="black" d="M124.66,-28.31C187.23,-29.5 284.47,-31.36 352.38,-32.65"/>
<polygon fill="black" stroke="black" points="352.28,-36.15 362.35,-32.84 352.42,-29.15 352.28,-36.15"/>
</g>
<!-- Y -->
<g id="node4" class="node">
<title>Y</title>
<ellipse fill="none" stroke="black" cx="610.75" cy="-34.14" rx="75.41" ry="18"/>
<text xml:space="preserve" text-anchor="middle" x="610.75" y="-29.46" font-family="Times New Roman,serif" font-size="14.00">지불금액 (Y)</text>
</g>
<!-- T&#45;&gt;Y -->
<g id="edge6" class="edge">
<title>T&#45;&gt;Y</title>
<path fill="none" stroke="black" stroke-dasharray="5,2" d="M118.07,-18.86C200.77,-7.67 362.25,9.12 498.34,-7.14 515.77,-9.22 534.41,-13.07 551.36,-17.22"/>
<polygon fill="black" stroke="black" points="550.2,-20.54 560.75,-19.61 551.92,-13.76 550.2,-20.54"/>
<text xml:space="preserve" text-anchor="middle" x="318.15" y="-6.54" font-family="Times New Roman,serif" font-size="14.00">총 효과</text>
</g>
<!-- op&#45;&gt;ag -->
<g id="edge3" class="edge">
<title>op&#45;&gt;ag</title>
<path fill="none" stroke="black" d="M265.84,-64.34C294.81,-59.01 332.17,-52.14 363.94,-46.3"/>
<polygon fill="black" stroke="black" points="364.23,-49.81 373.43,-44.56 362.97,-42.92 364.23,-49.81"/>
</g>
<!-- op&#45;&gt;Y -->
<g id="edge4" class="edge">
<title>op&#45;&gt;Y</title>
<path fill="none" stroke="black" d="M272.78,-73.94C329.51,-74.03 420.55,-72.12 498.34,-61.14 515.39,-58.73 533.65,-54.86 550.35,-50.8"/>
<polygon fill="black" stroke="black" points="550.75,-54.31 559.6,-48.48 549.04,-47.52 550.75,-54.31"/>
</g>
<!-- ag&#45;&gt;Y -->
<g id="edge5" class="edge">
<title>ag&#45;&gt;Y</title>
<path fill="none" stroke="black" d="M498.77,-34.14C506.89,-34.14 515.28,-34.14 523.63,-34.14"/>
<polygon fill="black" stroke="black" points="523.46,-37.64 533.46,-34.14 523.46,-30.64 523.46,-37.64"/>
</g>
</g>
</svg>