<?xml version="1.0" encoding="UTF-8" standalone="no"?>
<!DOCTYPE svg PUBLIC "-//W3C//DTD SVG 1.1//EN"
 "http://www.w3.org/Graphics/SVG/1.1/DTD/svg11.dtd">
<!-- Generated by graphviz version 14.1.3 (0)
 -->
<!-- Pages: 1 -->
<svg width="547pt" height="122pt"
 viewBox="0.00 0.00 547.00 122.00" xmlns="http://www.w3.org/2000/svg" xmlns:xlink="http://www.w3.org/1999/xlink">
<g id="graph0" class="graph" transform="scale(1 1) rotate(0) translate(4 117.52)">
<polygon fill="white" stroke="none" points="-4,4 -4,-117.52 542.57,-117.52 542.57,4 -4,4"/>
<!-- Z -->
<g id="node1" class="node">
<title>Z</title>
<ellipse fill="none" stroke="black" cx="74.36" cy="-95.52" rx="74.36" ry="18"/>
<text xml:space="preserve" text-anchor="middle" x="74.36" y="-90.85" font-family="Times New Roman,serif" font-size="14.00">출생 분기(Z)</text>
</g>
<!-- ed -->
<g id="node3" class="node">
<title>ed</title>
<ellipse fill="none" stroke="black" cx="326.94" cy="-75.52" rx="71.73" ry="18"/>
<text xml:space="preserve" text-anchor="middle" x="326.94" y="-70.85" font-family="Times New Roman,serif" font-size="14.00">교육연수(T)</text>
</g>
<!-- Z&#45;&gt;ed -->
<g id="edge1" class="edge">
<title>Z&#45;&gt;ed</title>
<path fill="none" stroke="black" d="M145.49,-89.92C176.96,-87.41 214.24,-84.44 246.71,-81.84"/>
<polygon fill="black" stroke="black" points="246.79,-85.35 256.48,-81.07 246.23,-78.37 246.79,-85.35"/>
<text xml:space="preserve" text-anchor="middle" x="201.96" y="-91.85" font-family="Times New Roman,serif" font-size="14.00">① 1st Stage</text>
</g>
<!-- ab -->
<g id="node2" class="node">
<title>ab</title>
<ellipse fill="#ffcccc" stroke="black" cx="74.36" cy="-29.52" rx="69.12" ry="29.52"/>
<text xml:space="preserve" text-anchor="middle" x="74.36" y="-33.1" font-family="Times New Roman,serif" font-size="14.00">ability</text>
<text xml:space="preserve" text-anchor="middle" x="74.36" y="-16.6" font-family="Times New Roman,serif" font-size="14.00">(관찰 불가)</text>
</g>
<!-- ab&#45;&gt;ed -->
<g id="edge2" class="edge">
<title>ab&#45;&gt;ed</title>
<path fill="none" stroke="black" d="M138.27,-41.07C174.4,-47.7 219.82,-56.04 256.93,-62.85"/>
<polygon fill="black" stroke="black" points="256.2,-66.28 266.67,-64.64 257.47,-59.39 256.2,-66.28"/>
</g>
<!-- wg -->
<g id="node4" class="node">
<title>wg</title>
<ellipse fill="none" stroke="black" cx="489.99" cy="-45.52" rx="48.58" ry="18"/>
<text xml:space="preserve" text-anchor="middle" x="489.99" y="-40.85" font-family="Times New Roman,serif" font-size="14.00">임금(Y)</text>
</g>
<!-- ab&#45;&gt;wg -->
<g id="edge3" class="edge">
<title>ab&#45;&gt;wg</title>
<path fill="none" stroke="black" d="M143.66,-32.16C223.54,-35.25 354.45,-40.32 430.06,-43.24"/>
<polygon fill="black" stroke="black" points="429.61,-46.73 439.74,-43.62 429.88,-39.73 429.61,-46.73"/>
</g>
<!-- ed&#45;&gt;wg -->
<g id="edge4" class="edge">
<title>ed&#45;&gt;wg</title>
<path fill="none" stroke="black" stroke-dasharray="5,2" d="M385.63,-64.78C401.61,-61.8 418.89,-58.58 434.67,-55.64"/>
<polygon fill="black" stroke="black" points="435.18,-59.11 444.37,-53.83 433.9,-52.22 435.18,-59.11"/>
<text xml:space="preserve" text-anchor="middle" x="420.04" y="-61.93" font-family="Times New Roman,serif" font-size="14.00">κ</text>
</g>
</g>
</svg>