<?xml version="1.0" encoding="UTF-8" standalone="no"?>
<!DOCTYPE svg PUBLIC "-//W3C//DTD SVG 1.1//EN"
 "http://www.w3.org/Graphics/SVG/1.1/DTD/svg11.dtd">
<!-- Generated by graphviz version 14.1.3 (0)
 -->
<!-- Pages: 1 -->
<svg width="441pt" height="152pt"
 viewBox="0.00 0.00 441.00 152.00" xmlns="http://www.w3.org/2000/svg" xmlns:xlink="http://www.w3.org/1999/xlink">
<g id="graph0" class="graph" transform="scale(1 1) rotate(0) translate(4 148)">
<polygon fill="white" stroke="none" points="-4,4 -4,-148 437.07,-148 437.07,4 -4,4"/>
<!-- X1 -->
<g id="node1" class="node">
<title>X1</title>
<text xml:space="preserve" text-anchor="middle" x="67.62" y="-121.33" font-family="Times New Roman,serif" font-size="14.00">신용한도 (X1)</text>
</g>
<!-- Y -->
<g id="node4" class="node">
<title>Y</title>
<ellipse fill="none" stroke="black" cx="357.66" cy="-72" rx="75.41" ry="18"/>
<text xml:space="preserve" text-anchor="middle" x="357.66" y="-67.33" font-family="Times New Roman,serif" font-size="14.00">지불금액 (Y)</text>
</g>
<!-- X1&#45;&gt;Y -->
<g id="edge1" class="edge">
<title>X1&#45;&gt;Y</title>
<path fill="none" stroke="black" d="M124.5,-115.52C170.57,-106.89 236.18,-94.59 285.9,-85.26"/>
<polygon fill="black" stroke="black" points="286.55,-88.71 295.73,-83.42 285.26,-81.83 286.55,-88.71"/>
</g>
<!-- X2 -->
<g id="node2" class="node">
<title>X2</title>
<text xml:space="preserve" text-anchor="middle" x="67.62" y="-67.33" font-family="Times New Roman,serif" font-size="14.00">리스크 점수 (X2)</text>
</g>
<!-- X2&#45;&gt;Y -->
<g id="edge2" class="edge">
<title>X2&#45;&gt;Y</title>
<path fill="none" stroke="black" d="M135.07,-72C175.33,-72 227.12,-72 270.51,-72"/>
<polygon fill="black" stroke="black" points="270.41,-75.5 280.41,-72 270.41,-68.5 270.41,-75.5"/>
</g>
<!-- T -->
<g id="node3" class="node">
<title>T</title>
<ellipse fill="none" stroke="black" cx="67.62" cy="-18" rx="62.26" ry="18"/>
<text xml:space="preserve" text-anchor="middle" x="67.62" y="-13.32" font-family="Times New Roman,serif" font-size="14.00">이메일 (T)</text>
</g>
<!-- T&#45;&gt;Y -->
<g id="edge3" class="edge">
<title>T&#45;&gt;Y</title>
<path fill="none" stroke="black" stroke-dasharray="5,2" d="M123.6,-26.3C162.89,-32.45 216.96,-41.36 264.25,-50.75 273.42,-52.57 283.07,-54.63 292.53,-56.73"/>
<polygon fill="black" stroke="black" points="291.51,-60.09 302.04,-58.87 293.05,-53.26 291.51,-60.09"/>
<text xml:space="preserve" text-anchor="middle" x="208.75" y="-54.7" font-family="Times New Roman,serif" font-size="14.00">알고 싶은 효과</text>
</g>
</g>
</svg>