<?xml version="1.0" encoding="UTF-8" standalone="no"?>
<!DOCTYPE svg PUBLIC "-//W3C//DTD SVG 1.1//EN"
 "http://www.w3.org/Graphics/SVG/1.1/DTD/svg11.dtd">
<!-- Generated by graphviz version 14.1.3 (0)
 -->
<!-- Pages: 1 -->
<svg width="547pt" height="107pt"
 viewBox="0.00 0.00 547.00 107.00" xmlns="http://www.w3.org/2000/svg" xmlns:xlink="http://www.w3.org/1999/xlink">
<g id="graph0" class="graph" transform="scale(1 1) rotate(0) translate(4 103)">
<polygon fill="white" stroke="none" points="-4,4 -4,-103 542.75,-103 542.75,4 -4,4"/>
<!-- Z -->
<g id="node1" class="node">
<title>Z</title>
<path fill="#f5f3ff" stroke="#7c3aed" d="M124,-99C124,-99 20.25,-99 20.25,-99 14.25,-99 8.25,-93 8.25,-87 8.25,-87 8.25,-75 8.25,-75 8.25,-69 14.25,-63 20.25,-63 20.25,-63 124,-63 124,-63 130,-63 136,-69 136,-75 136,-75 136,-87 136,-87 136,-93 130,-99 124,-99"/>
<text xml:space="preserve" text-anchor="middle" x="72.12" y="-75.58" font-family="Helvetica,sans-Serif" font-size="14.00">push_assigned (Z)</text>
</g>
<!-- T -->
<g id="node2" class="node">
<title>T</title>
<path fill="#dcfce7" stroke="#15803d" d="M348.5,-72C348.5,-72 244,-72 244,-72 238,-72 232,-66 232,-60 232,-60 232,-48 232,-48 232,-42 238,-36 244,-36 244,-36 348.5,-36 348.5,-36 354.5,-36 360.5,-42 360.5,-48 360.5,-48 360.5,-60 360.5,-60 360.5,-66 354.5,-72 348.5,-72"/>
<text xml:space="preserve" text-anchor="middle" x="296.25" y="-48.58" font-family="Helvetica,sans-Serif" font-size="14.00">push_delivered (T)</text>
</g>
<!-- Z&#45;&gt;T -->
<g id="edge1" class="edge">
<title>Z&#45;&gt;T</title>
<path fill="none" stroke="black" d="M136.48,-73.3C162.74,-70.11 193.39,-66.38 220.72,-63.06"/>
<polygon fill="black" stroke="black" points="220.8,-66.58 230.31,-61.89 219.96,-59.63 220.8,-66.58"/>
<text xml:space="preserve" text-anchor="middle" x="188.12" y="-73.12" font-family="Times New Roman,serif" font-size="14.00">1st Stage</text>
</g>
<!-- Y -->
<g id="node3" class="node">
<title>Y</title>
<path fill="#fef9c3" stroke="#a16207" d="M526.75,-38C526.75,-38 409.5,-38 409.5,-38 403.5,-38 397.5,-32 397.5,-26 397.5,-26 397.5,-14 397.5,-14 397.5,-8 403.5,-2 409.5,-2 409.5,-2 526.75,-2 526.75,-2 532.75,-2 538.75,-8 538.75,-14 538.75,-14 538.75,-26 538.75,-26 538.75,-32 532.75,-38 526.75,-38"/>
<text xml:space="preserve" text-anchor="middle" x="468.12" y="-14.57" font-family="Helvetica,sans-Serif" font-size="14.00">in_app_purchase (Y)</text>
</g>
<!-- T&#45;&gt;Y -->
<g id="edge2" class="edge">
<title>T&#45;&gt;Y</title>
<path fill="none" stroke="black" d="M360.99,-41.24C369.08,-39.62 377.44,-37.95 385.76,-36.28"/>
<polygon fill="black" stroke="black" points="386.45,-39.72 395.56,-34.32 385.07,-32.85 386.45,-39.72"/>
</g>
<!-- U -->
<g id="node4" class="node">
<title>U</title>
<path fill="#fee2e2" stroke="#b91c1c" stroke-dasharray="5,2" d="M132.25,-36C132.25,-36 12,-36 12,-36 6,-36 0,-30 0,-24 0,-24 0,-12 0,-12 0,-6 6,0 12,0 12,0 132.25,0 132.25,0 138.25,0 144.25,-6 144.25,-12 144.25,-12 144.25,-24 144.25,-24 144.25,-30 138.25,-36 132.25,-36"/>
<text xml:space="preserve" text-anchor="middle" x="72.12" y="-13.32" font-family="Helvetica,sans-Serif" font-size="14.00">income [관찰 불가]</text>
</g>
<!-- U&#45;&gt;T -->
<g id="edge3" class="edge">
<title>U&#45;&gt;T</title>
<path fill="none" stroke="#b91c1c" stroke-dasharray="5,2" d="M144.63,-29.59C168.94,-33.53 196.15,-37.94 220.69,-41.92"/>
<polygon fill="#b91c1c" stroke="#b91c1c" points="219.83,-45.32 230.26,-43.47 220.95,-38.41 219.83,-45.32"/>
<text xml:space="preserve" text-anchor="middle" x="188.12" y="-44.23" font-family="Times New Roman,serif" font-size="14.00">구형폰</text>
</g>
<!-- U&#45;&gt;Y -->
<g id="edge4" class="edge">
<title>U&#45;&gt;Y</title>
<path fill="none" stroke="#b91c1c" stroke-dasharray="5,2" d="M144.48,-18.36C212.57,-18.71 315.04,-19.23 386.16,-19.59"/>
<polygon fill="#b91c1c" stroke="#b91c1c" points="385.77,-23.09 395.78,-19.64 385.8,-16.09 385.77,-23.09"/>
</g>
</g>
</svg>